<svg id="apple_2_" data-name="apple (2)" xmlns="http://www.w3.org/2000/svg" width="18.809" height="22.02" viewBox="0 0 18.809 22.02">
  <g id="Group_3" data-name="Group 3" transform="translate(9.04)">
    <g id="Group_2" data-name="Group 2" transform="translate(0)">
      <path id="Path_14" data-name="Path 14" d="M252.014,0a5.167,5.167,0,0,0-3.346,1.811,4.488,4.488,0,0,0-1.1,3.487,4.361,4.361,0,0,0,3.376-1.724A4.845,4.845,0,0,0,252.014,0Z" transform="translate(-247.522)" fill="#dde3ec"/>
    </g>
  </g>
  <g id="Group_5" data-name="Group 5" transform="translate(0 5.154)">
    <g id="Group_4" data-name="Group 4">
      <path id="Path_15" data-name="Path 15" d="M55.507,122.074A5.574,5.574,0,0,0,51.3,119.84c-1.975,0-2.81.945-4.182.945-1.415,0-2.49-.943-4.2-.943a5.711,5.711,0,0,0-4.6,2.779c-1.592,2.469-1.32,7.111,1.261,11.065.923,1.415,2.157,3.006,3.77,3.02,1.435.014,1.84-.921,3.785-.93s2.313.943,3.746.928c1.614-.012,2.915-1.775,3.838-3.19a15.865,15.865,0,0,0,1.422-2.67A4.855,4.855,0,0,1,55.507,122.074Z" transform="translate(-37.336 -119.84)" fill="#dde3ec"/>
    </g>
  </g>
</svg>
