<svg id="Group_4644" data-name="Group 4644" xmlns="http://www.w3.org/2000/svg" width="11.993" height="13.714" viewBox="0 0 11.993 13.714">
  <path id="Path_33" data-name="Path 33" d="M6.311,5.452v.69a1.047,1.047,0,0,0,.13.546A.617.617,0,0,0,6.978,7a.921.921,0,0,0,.642-.315L9.9,4.406a1.284,1.284,0,0,0,0-1.814L7.62.315A.92.92,0,0,0,6.978,0c-.332,0-.667.265-.667.857v.626A6.765,6.765,0,0,0,0,7.4a.4.4,0,0,0,.723.286A5.669,5.669,0,0,1,6.311,5.452Zm0,0" transform="translate(-0.001 -0.001)" fill="#fff"/>
  <path id="Path_34" data-name="Path 34" d="M74.27,218.793a.4.4,0,0,0-.472.136,5.669,5.669,0,0,1-5.585,2.239v-.69c0-.592-.335-.857-.667-.857a.921.921,0,0,0-.642.315l-2.277,2.277a1.284,1.284,0,0,0,0,1.814L66.9,226.3a.921.921,0,0,0,.642.315c.332,0,.667-.265.667-.857v-.626a6.765,6.765,0,0,0,6.308-5.921.4.4,0,0,0-.251-.423Zm0,0" transform="translate(-62.531 -212.905)" fill="#fff"/>
</svg>
