<svg xmlns="http://www.w3.org/2000/svg" width="16.175" height="16.175" viewBox="0 0 16.175 16.175">
  <g id="Iconly_Bold_Chart" data-name="Iconly/Bold/Chart" transform="translate(-2 -2)">
    <g id="Chart" transform="translate(2 2)">
      <path id="Chart-2" data-name="Chart" d="M11.864,16.175H4.311a4.329,4.329,0,0,1-3.187-1.124A4.329,4.329,0,0,1,0,11.865V4.311A4.329,4.329,0,0,1,1.124,1.124,4.329,4.329,0,0,1,4.311,0h7.553a4.323,4.323,0,0,1,3.184,1.124,4.351,4.351,0,0,1,1.127,3.187v7.554a4.328,4.328,0,0,1-1.124,3.187A4.33,4.33,0,0,1,11.864,16.175Zm-.016-7.349a.7.7,0,0,0-.363.1.652.652,0,0,0-.307.638v2.653a.668.668,0,0,0,.671.606.682.682,0,0,0,.671-.606V9.567a.678.678,0,0,0-.316-.638A.666.666,0,0,0,11.848,8.826ZM8.129,3.237a.666.666,0,0,0-.356.1.685.685,0,0,0-.317.639v8.241a.682.682,0,0,0,.672.606.669.669,0,0,0,.671-.606V3.979a.66.66,0,0,0-.306-.639A.7.7,0,0,0,8.129,3.237ZM4.359,5.89a.665.665,0,0,0-.356.1.682.682,0,0,0-.315.639v5.589a.674.674,0,0,0,1.342,0V6.632a.684.684,0,0,0-.314-.639A.668.668,0,0,0,4.359,5.89Z" transform="translate(0 0)" fill="#fff"/>
    </g>
  </g>
</svg>
