<svg id="playstore_1_" data-name="playstore (1)" xmlns="http://www.w3.org/2000/svg" width="19.995" height="22.02" viewBox="0 0 19.995 22.02">
  <g id="Group_1" data-name="Group 1" transform="translate(0 0.001)">
    <path id="Path_6" data-name="Path 6" d="M62.344,7.565C59.786,6.134,55.68,3.837,49.312.271a1.535,1.535,0,0,0-1.35-.176L58.888,11.021Z" transform="translate(-46.912 -0.012)" fill="#32bbff"/>
    <path id="Path_7" data-name="Path 7" d="M24.6,1.93a1.57,1.57,0,0,0-.232.1A1.536,1.536,0,0,0,23.549,3.4V22.317a1.536,1.536,0,0,0,.818,1.366,1.589,1.589,0,0,0,.232.1L35.525,12.856Z" transform="translate(-23.549 -1.848)" fill="#32bbff"/>
    <path id="Path_8" data-name="Path 8" d="M58.883,255.98,47.956,266.906a1.52,1.52,0,0,0,1.35-.176c6.176-3.458,10.235-5.729,12.823-7.171l.212-.119Z" transform="translate(-46.906 -244.971)" fill="#32bbff"/>
  </g>
  <path id="Path_9" data-name="Path 9" d="M23.549,255.98v9.461a1.536,1.536,0,0,0,.818,1.366,1.592,1.592,0,0,0,.232.1L35.525,255.98Z" transform="translate(-23.549 -244.971)" fill="#2c9fd9"/>
  <path id="Path_10" data-name="Path 10" d="M44.143.259A1.54,1.54,0,0,0,42.561.182L53.554,11.175l3.622-3.622C54.618,6.123,50.512,3.825,44.143.259Z" transform="translate(-41.743 0)" fill="#29cc5e"/>
  <path id="Path_11" data-name="Path 11" d="M53.554,252.126,42.561,263.119a1.53,1.53,0,0,0,1.582-.077c6.176-3.458,10.235-5.729,12.823-7.171l.212-.119Z" transform="translate(-41.743 -241.283)" fill="#d93f21"/>
  <path id="Path_12" data-name="Path 12" d="M302.653,176.432a1.532,1.532,0,0,0-.789-1.347s-.981-.547-3.986-2.228l-3.575,3.575,3.578,3.579c2.973-1.669,3.983-2.232,3.983-2.232A1.532,1.532,0,0,0,302.653,176.432Z" transform="translate(-282.658 -165.423)" fill="#ffd500"/>
  <path id="Path_13" data-name="Path 13" d="M301.864,257.327a1.532,1.532,0,0,0,.789-1.347H294.3l3.578,3.579C300.854,257.89,301.864,257.327,301.864,257.327Z" transform="translate(-282.658 -244.971)" fill="#fa0"/>
</svg>
