<svg xmlns="http://www.w3.org/2000/svg" width="13.714" height="13.714" viewBox="0 0 13.714 13.714">
  <g id="support_2_" data-name="support (2)" transform="translate(0)">
    <g id="Group_4651" data-name="Group 4651" transform="translate(0 3.937)">
      <g id="Group_4650" data-name="Group 4650">
        <path id="Path_18169" data-name="Path 18169" d="M6.532,152.818l-.294,1.068a5.179,5.179,0,0,1-3.351-3.351l1.068-.294V147H0v1.977a7.8,7.8,0,0,0,7.8,7.8H9.777v-3.955Z" transform="translate(0 -146.996)" fill="#fff"/>
      </g>
    </g>
    <g id="Group_4653" data-name="Group 4653" transform="translate(2.008 0)">
      <g id="Group_4652" data-name="Group 4652" transform="translate(0 0)">
        <path id="Path_18170" data-name="Path 18170" d="M84.679,2.009a6.857,6.857,0,0,0-9.7,0l.568.568a6.054,6.054,0,0,1,8.561,8.561l.568.568a6.857,6.857,0,0,0,0-9.7Z" transform="translate(-74.981 -0.001)" fill="#fff"/>
      </g>
    </g>
  </g>
</svg>
